<svg width="1000" height="1000" viewBox="0 0 1000 1000" fill="none" xmlns="http://www.w3.org/2000/svg">
<circle cx="20" cy="20" r="20" fill="#F3F4F2"/>
<circle cx="66" cy="20" r="20" fill="#F3F4F2"/>
<circle cx="112" cy="20" r="20" fill="#F3F4F2"/>
<circle cx="158" cy="20" r="20" fill="#F3F4F2"/>
<circle cx="204" cy="20" r="20" fill="#F3F4F2"/>
<circle cx="250" cy="20" r="20" fill="#F3F4F2"/>
<circle cx="296" cy="20" r="20" fill="#F3F4F2"/>
<circle cx="342" cy="20" r="20" fill="#F3F4F2"/>
<circle cx="388" cy="20" r="20" fill="#F3F4F2"/>
<circle cx="434" cy="20" r="20" fill="#F3F4F2"/>
<circle cx="480" cy="20" r="20" fill="#F3F4F2"/>
<circle cx="526" cy="20" r="20" fill="#F3F4F2"/>
<circle cx="572" cy="20" r="20" fill="#F3F4F2"/>
<circle cx="618" cy="20" r="20" fill="#F3F4F2"/>
<circle cx="664" cy="20" r="20" fill="#F3F4F2"/>
<circle cx="710" cy="20" r="20" fill="#F3F4F2"/>
<circle cx="756" cy="20" r="20" fill="#F3F4F2"/>
<circle cx="802" cy="20" r="20" fill="#F3F4F2"/>
<circle cx="848" cy="20" r="20" fill="#F3F4F2"/>
<circle cx="894" cy="20" r="20" fill="#F3F4F2"/>
<circle cx="940" cy="20" r="20" fill="#F3F4F2"/>
<circle cx="20" cy="66" r="20" fill="#F3F4F2"/>
<circle cx="66" cy="66" r="20" fill="#F3F4F2"/>
<circle cx="112" cy="66" r="20" fill="#F3F4F2"/>
<circle cx="158" cy="66" r="20" fill="#F3F4F2"/>
<circle cx="204" cy="66" r="20" fill="#F3F4F2"/>
<circle cx="250" cy="66" r="20" fill="#F3F4F2"/>
<circle cx="296" cy="66" r="20" fill="#F3F4F2"/>
<circle cx="342" cy="66" r="20" fill="#F3F4F2"/>
<circle cx="388" cy="66" r="20" fill="#F3F4F2"/>
<circle cx="434" cy="66" r="20" fill="#F3F4F2"/>
<circle cx="480" cy="66" r="20" fill="#F3F4F2"/>
<circle cx="526" cy="66" r="20" fill="#F3F4F2"/>
<circle cx="572" cy="66" r="20" fill="#F3F4F2"/>
<circle cx="618" cy="66" r="20" fill="#F3F4F2"/>
<circle cx="664" cy="66" r="20" fill="#F3F4F2"/>
<circle cx="710" cy="66" r="20" fill="#F3F4F2"/>
<circle cx="756" cy="66" r="20" fill="#F3F4F2"/>
<circle cx="802" cy="66" r="20" fill="#F3F4F2"/>
<circle cx="848" cy="66" r="20" fill="#F3F4F2"/>
<circle cx="894" cy="66" r="20" fill="#F3F4F2"/>
<circle cx="940" cy="66" r="20" fill="#F3F4F2"/>
<circle cx="20" cy="112" r="20" fill="#F3F4F2"/>
<circle cx="66" cy="112" r="20" fill="#F3F4F2"/>
<circle cx="112" cy="112" r="20" fill="#F3F4F2"/>
<circle cx="158" cy="112" r="20" fill="#F3F4F2"/>
<circle cx="204" cy="112" r="20" fill="#F3F4F2"/>
<circle cx="250" cy="112" r="20" fill="#F3F4F2"/>
<circle cx="296" cy="112" r="20" fill="#F3F4F2"/>
<circle cx="342" cy="112" r="20" fill="#F3F4F2"/>
<circle cx="388" cy="112" r="20" fill="#F3F4F2"/>
<circle cx="434" cy="112" r="20" fill="#F3F4F2"/>
<circle cx="480" cy="112" r="20" fill="#F3F4F2"/>
<circle cx="526" cy="112" r="20" fill="#F3F4F2"/>
<circle cx="572" cy="112" r="20" fill="#F3F4F2"/>
<circle cx="618" cy="112" r="20" fill="#F3F4F2"/>
<circle cx="664" cy="112" r="20" fill="#F3F4F2"/>
<circle cx="710" cy="112" r="20" fill="#F3F4F2"/>
<circle cx="756" cy="112" r="20" fill="#F3F4F2"/>
<circle cx="802" cy="112" r="20" fill="#F3F4F2"/>
<circle cx="848" cy="112" r="20" fill="#F3F4F2"/>
<circle cx="894" cy="112" r="20" fill="#F3F4F2"/>
<circle cx="940" cy="112" r="20" fill="#F3F4F2"/>
<circle cx="20" cy="158" r="20" fill="#F3F4F2"/>
<circle cx="66" cy="158" r="20" fill="#F3F4F2"/>
<circle cx="112" cy="158" r="20" fill="#F3F4F2"/>
<circle cx="158" cy="158" r="20" fill="#F3F4F2"/>
<circle cx="204" cy="158" r="20" fill="#F3F4F2"/>
<circle cx="250" cy="158" r="20" fill="#F3F4F2"/>
<circle cx="296" cy="158" r="20" fill="#F3F4F2"/>
<circle cx="342" cy="158" r="20" fill="#F3F4F2"/>
<circle cx="388" cy="158" r="20" fill="#F3F4F2"/>
<circle cx="434" cy="158" r="20" fill="#F3F4F2"/>
<circle cx="480" cy="158" r="20" fill="#F3F4F2"/>
<circle cx="526" cy="158" r="20" fill="#F3F4F2"/>
<circle cx="572" cy="158" r="20" fill="#F3F4F2"/>
<circle cx="618" cy="158" r="20" fill="#F3F4F2"/>
<circle cx="664" cy="158" r="20" fill="#F3F4F2"/>
<circle cx="710" cy="158" r="20" fill="#F3F4F2"/>
<circle cx="756" cy="158" r="20" fill="#F3F4F2"/>
<circle cx="802" cy="158" r="20" fill="#F3F4F2"/>
<circle cx="848" cy="158" r="20" fill="#F3F4F2"/>
<circle cx="894" cy="158" r="20" fill="#F3F4F2"/>
<circle cx="940" cy="158" r="20" fill="#F3F4F2"/>
<circle cx="20" cy="204" r="20" fill="#F3F4F2"/>
<circle cx="66" cy="204" r="20" fill="#F3F4F2"/>
<circle cx="112" cy="204" r="20" fill="#F3F4F2"/>
<circle cx="158" cy="204" r="20" fill="#F3F4F2"/>
<circle cx="204" cy="204" r="20" fill="#F3F4F2"/>
<circle cx="250" cy="204" r="20" fill="#F3F4F2"/>
<circle cx="296" cy="204" r="20" fill="#F3F4F2"/>
<circle cx="342" cy="204" r="20" fill="#F3F4F2"/>
<circle cx="388" cy="204" r="20" fill="#F3F4F2"/>
<circle cx="434" cy="204" r="20" fill="#F3F4F2"/>
<circle cx="480" cy="204" r="20" fill="#F3F4F2"/>
<circle cx="526" cy="204" r="20" fill="#F3F4F2"/>
<circle cx="572" cy="204" r="20" fill="#F3F4F2"/>
<circle cx="618" cy="204" r="20" fill="#F3F4F2"/>
<circle cx="664" cy="204" r="20" fill="#F3F4F2"/>
<circle cx="710" cy="204" r="20" fill="#F3F4F2"/>
<circle cx="756" cy="204" r="20" fill="#F3F4F2"/>
<circle cx="802" cy="204" r="20" fill="#F3F4F2"/>
<circle cx="848" cy="204" r="20" fill="#F3F4F2"/>
<circle cx="894" cy="204" r="20" fill="#F3F4F2"/>
<circle cx="940" cy="204" r="20" fill="#F3F4F2"/>
<circle cx="20" cy="250" r="20" fill="#F3F4F2"/>
<circle cx="66" cy="250" r="20" fill="#F3F4F2"/>
<circle cx="112" cy="250" r="20" fill="#F3F4F2"/>
<circle cx="158" cy="250" r="20" fill="#F3F4F2"/>
<circle cx="204" cy="250" r="20" fill="#F3F4F2"/>
<circle cx="250" cy="250" r="20" fill="#F3F4F2"/>
<circle cx="296" cy="250" r="20" fill="#F3F4F2"/>
<circle cx="342" cy="250" r="20" fill="#F3F4F2"/>
<circle cx="388" cy="250" r="20" fill="#F3F4F2"/>
<circle cx="434" cy="250" r="20" fill="#F3F4F2"/>
<circle cx="480" cy="250" r="20" fill="#F3F4F2"/>
<circle cx="526" cy="250" r="20" fill="#F3F4F2"/>
<circle cx="572" cy="250" r="20" fill="#F3F4F2"/>
<circle cx="618" cy="250" r="20" fill="#F3F4F2"/>
<circle cx="664" cy="250" r="20" fill="#F3F4F2"/>
<circle cx="710" cy="250" r="20" fill="#F3F4F2"/>
<circle cx="756" cy="250" r="20" fill="#F3F4F2"/>
<circle cx="802" cy="250" r="20" fill="#F3F4F2"/>
<circle cx="848" cy="250" r="20" fill="#F3F4F2"/>
<circle cx="894" cy="250" r="20" fill="#F3F4F2"/>
<circle cx="940" cy="250" r="20" fill="#F3F4F2"/>
<circle cx="20" cy="296" r="20" fill="#F3F4F2"/>
<circle cx="66" cy="296" r="20" fill="#F3F4F2"/>
<circle cx="112" cy="296" r="20" fill="#F3F4F2"/>
<circle cx="158" cy="296" r="20" fill="#F3F4F2"/>
<circle cx="204" cy="296" r="20" fill="#F3F4F2"/>
<circle cx="250" cy="296" r="20" fill="#F3F4F2"/>
<circle cx="296" cy="296" r="20" fill="#F3F4F2"/>
<circle cx="342" cy="296" r="20" fill="#F3F4F2"/>
<circle cx="388" cy="296" r="20" fill="#F3F4F2"/>
<circle cx="434" cy="296" r="20" fill="#F3F4F2"/>
<circle cx="480" cy="296" r="20" fill="#F3F4F2"/>
<circle cx="526" cy="296" r="20" fill="#F3F4F2"/>
<circle cx="572" cy="296" r="20" fill="#F3F4F2"/>
<circle cx="618" cy="296" r="20" fill="#F3F4F2"/>
<circle cx="664" cy="296" r="20" fill="#F3F4F2"/>
<circle cx="710" cy="296" r="20" fill="#F3F4F2"/>
<circle cx="756" cy="296" r="20" fill="#F3F4F2"/>
<circle cx="802" cy="296" r="20" fill="#F3F4F2"/>
<circle cx="848" cy="296" r="20" fill="#F3F4F2"/>
<circle cx="894" cy="296" r="20" fill="#F3F4F2"/>
<circle cx="940" cy="296" r="20" fill="#F3F4F2"/>
<circle cx="20" cy="342" r="20" fill="#F3F4F2"/>
<circle cx="66" cy="342" r="20" fill="#F3F4F2"/>
<circle cx="112" cy="342" r="20" fill="#F3F4F2"/>
<circle cx="158" cy="342" r="20" fill="#F3F4F2"/>
<circle cx="204" cy="342" r="20" fill="#F3F4F2"/>
<circle cx="250" cy="342" r="20" fill="#F3F4F2"/>
<circle cx="296" cy="342" r="20" fill="#F3F4F2"/>
<circle cx="342" cy="342" r="20" fill="#F3F4F2"/>
<circle cx="388" cy="342" r="20" fill="#F3F4F2"/>
<circle cx="434" cy="342" r="20" fill="#F3F4F2"/>
<circle cx="480" cy="342" r="20" fill="#F3F4F2"/>
<circle cx="526" cy="342" r="20" fill="#F3F4F2"/>
<circle cx="572" cy="342" r="20" fill="#F3F4F2"/>
<circle cx="618" cy="342" r="20" fill="#F3F4F2"/>
<circle cx="664" cy="342" r="20" fill="#F3F4F2"/>
<circle cx="710" cy="342" r="20" fill="#F3F4F2"/>
<circle cx="756" cy="342" r="20" fill="#F3F4F2"/>
<circle cx="802" cy="342" r="20" fill="#F3F4F2"/>
<circle cx="848" cy="342" r="20" fill="#F3F4F2"/>
<circle cx="894" cy="342" r="20" fill="#F3F4F2"/>
<circle cx="940" cy="342" r="20" fill="#F3F4F2"/>
<circle cx="20" cy="388" r="20" fill="#F3F4F2"/>
<circle cx="66" cy="388" r="20" fill="#F3F4F2"/>
<circle cx="112" cy="388" r="20" fill="#F3F4F2"/>
<circle cx="158" cy="388" r="20" fill="#F3F4F2"/>
<circle cx="204" cy="388" r="20" fill="#F3F4F2"/>
<circle cx="250" cy="388" r="20" fill="#F3F4F2"/>
<circle cx="296" cy="388" r="20" fill="#F3F4F2"/>
<circle cx="342" cy="388" r="20" fill="#F3F4F2"/>
<circle cx="388" cy="388" r="20" fill="#F3F4F2"/>
<circle cx="434" cy="388" r="20" fill="#F3F4F2"/>
<circle cx="480" cy="388" r="20" fill="#F3F4F2"/>
<circle cx="526" cy="388" r="20" fill="#F3F4F2"/>
<circle cx="572" cy="388" r="20" fill="#F3F4F2"/>
<circle cx="618" cy="388" r="20" fill="#F3F4F2"/>
<circle cx="664" cy="388" r="20" fill="#F3F4F2"/>
<circle cx="710" cy="388" r="20" fill="#F3F4F2"/>
<circle cx="756" cy="388" r="20" fill="#F3F4F2"/>
<circle cx="802" cy="388" r="20" fill="#F3F4F2"/>
<circle cx="848" cy="388" r="20" fill="#F3F4F2"/>
<circle cx="894" cy="388" r="20" fill="#F3F4F2"/>
<circle cx="940" cy="388" r="20" fill="#F3F4F2"/>
<circle cx="20" cy="434" r="20" fill="#F3F4F2"/>
<circle cx="66" cy="434" r="20" fill="#F3F4F2"/>
<circle cx="112" cy="434" r="20" fill="#F3F4F2"/>
<circle cx="158" cy="434" r="20" fill="#F3F4F2"/>
<circle cx="204" cy="434" r="20" fill="#F3F4F2"/>
<circle cx="250" cy="434" r="20" fill="#F3F4F2"/>
<circle cx="296" cy="434" r="20" fill="#F3F4F2"/>
<circle cx="342" cy="434" r="20" fill="#F3F4F2"/>
<circle cx="388" cy="434" r="20" fill="#F3F4F2"/>
<circle cx="434" cy="434" r="20" fill="#F3F4F2"/>
<circle cx="480" cy="434" r="20" fill="#F3F4F2"/>
<circle cx="526" cy="434" r="20" fill="#F3F4F2"/>
<circle cx="572" cy="434" r="20" fill="#F3F4F2"/>
<circle cx="618" cy="434" r="20" fill="#F3F4F2"/>
<circle cx="664" cy="434" r="20" fill="#F3F4F2"/>
<circle cx="710" cy="434" r="20" fill="#F3F4F2"/>
<circle cx="756" cy="434" r="20" fill="#F3F4F2"/>
<circle cx="802" cy="434" r="20" fill="#F3F4F2"/>
<circle cx="848" cy="434" r="20" fill="#F3F4F2"/>
<circle cx="894" cy="434" r="20" fill="#F3F4F2"/>
<circle cx="940" cy="434" r="20" fill="#F3F4F2"/>
<circle cx="20" cy="480" r="20" fill="#F3F4F2"/>
<circle cx="66" cy="480" r="20" fill="#F3F4F2"/>
<circle cx="112" cy="480" r="20" fill="#F3F4F2"/>
<circle cx="158" cy="480" r="20" fill="#F3F4F2"/>
<circle cx="204" cy="480" r="20" fill="#F3F4F2"/>
<circle cx="250" cy="480" r="20" fill="#F3F4F2"/>
<circle cx="296" cy="480" r="20" fill="#F3F4F2"/>
<circle cx="342" cy="480" r="20" fill="#F3F4F2"/>
<circle cx="388" cy="480" r="20" fill="#F3F4F2"/>
<circle cx="434" cy="480" r="20" fill="#F3F4F2"/>
<circle cx="480" cy="480" r="20" fill="#F3F4F2"/>
<circle cx="526" cy="480" r="20" fill="#F3F4F2"/>
<circle cx="572" cy="480" r="20" fill="#F3F4F2"/>
<circle cx="618" cy="480" r="20" fill="#F3F4F2"/>
<circle cx="664" cy="480" r="20" fill="#F3F4F2"/>
<circle cx="710" cy="480" r="20" fill="#F3F4F2"/>
<circle cx="756" cy="480" r="20" fill="#F3F4F2"/>
<circle cx="802" cy="480" r="20" fill="#F3F4F2"/>
<circle cx="848" cy="480" r="20" fill="#F3F4F2"/>
<circle cx="894" cy="480" r="20" fill="#F3F4F2"/>
<circle cx="940" cy="480" r="20" fill="#F3F4F2"/>
<circle cx="20" cy="526" r="20" fill="#F3F4F2"/>
<circle cx="66" cy="526" r="20" fill="#F3F4F2"/>
<circle cx="112" cy="526" r="20" fill="#F3F4F2"/>
<circle cx="158" cy="526" r="20" fill="#F3F4F2"/>
<circle cx="204" cy="526" r="20" fill="#F3F4F2"/>
<circle cx="250" cy="526" r="20" fill="#F3F4F2"/>
<circle cx="296" cy="526" r="20" fill="#F3F4F2"/>
<circle cx="342" cy="526" r="20" fill="#F3F4F2"/>
<circle cx="388" cy="526" r="20" fill="#F3F4F2"/>
<circle cx="434" cy="526" r="20" fill="#F3F4F2"/>
<circle cx="480" cy="526" r="20" fill="#F3F4F2"/>
<circle cx="526" cy="526" r="20" fill="#F3F4F2"/>
<circle cx="572" cy="526" r="20" fill="#F3F4F2"/>
<circle cx="618" cy="526" r="20" fill="#F3F4F2"/>
<circle cx="664" cy="526" r="20" fill="#F3F4F2"/>
<circle cx="710" cy="526" r="20" fill="#F3F4F2"/>
<circle cx="756" cy="526" r="20" fill="#F3F4F2"/>
<circle cx="802" cy="526" r="20" fill="#F3F4F2"/>
<circle cx="848" cy="526" r="20" fill="#F3F4F2"/>
<circle cx="894" cy="526" r="20" fill="#F3F4F2"/>
<circle cx="940" cy="526" r="20" fill="#F3F4F2"/>
<circle cx="20" cy="572" r="20" fill="#F3F4F2"/>
<circle cx="66" cy="572" r="20" fill="#F3F4F2"/>
<circle cx="112" cy="572" r="20" fill="#F3F4F2"/>
<circle cx="158" cy="572" r="20" fill="#F3F4F2"/>
<circle cx="204" cy="572" r="20" fill="#F3F4F2"/>
<circle cx="250" cy="572" r="20" fill="#F3F4F2"/>
<circle cx="296" cy="572" r="20" fill="#F3F4F2"/>
<circle cx="342" cy="572" r="20" fill="#F3F4F2"/>
<circle cx="388" cy="572" r="20" fill="#F3F4F2"/>
<circle cx="434" cy="572" r="20" fill="#F3F4F2"/>
<circle cx="480" cy="572" r="20" fill="#F3F4F2"/>
<circle cx="526" cy="572" r="20" fill="#F3F4F2"/>
<circle cx="572" cy="572" r="20" fill="#F3F4F2"/>
<circle cx="618" cy="572" r="20" fill="#F3F4F2"/>
<circle cx="664" cy="572" r="20" fill="#F3F4F2"/>
<circle cx="710" cy="572" r="20" fill="#F3F4F2"/>
<circle cx="756" cy="572" r="20" fill="#F3F4F2"/>
<circle cx="802" cy="572" r="20" fill="#F3F4F2"/>
<circle cx="848" cy="572" r="20" fill="#F3F4F2"/>
<circle cx="894" cy="572" r="20" fill="#F3F4F2"/>
<circle cx="940" cy="572" r="20" fill="#F3F4F2"/>
<circle cx="20" cy="618" r="20" fill="#F3F4F2"/>
<circle cx="66" cy="618" r="20" fill="#F3F4F2"/>
<circle cx="112" cy="618" r="20" fill="#F3F4F2"/>
<circle cx="158" cy="618" r="20" fill="#F3F4F2"/>
<circle cx="204" cy="618" r="20" fill="#F3F4F2"/>
<circle cx="250" cy="618" r="20" fill="#F3F4F2"/>
<circle cx="296" cy="618" r="20" fill="#F3F4F2"/>
<circle cx="342" cy="618" r="20" fill="#F3F4F2"/>
<circle cx="388" cy="618" r="20" fill="#F3F4F2"/>
<circle cx="434" cy="618" r="20" fill="#F3F4F2"/>
<circle cx="480" cy="618" r="20" fill="#F3F4F2"/>
<circle cx="526" cy="618" r="20" fill="#F3F4F2"/>
<circle cx="572" cy="618" r="20" fill="#F3F4F2"/>
<circle cx="618" cy="618" r="20" fill="#F3F4F2"/>
<circle cx="664" cy="618" r="20" fill="#F3F4F2"/>
<circle cx="710" cy="618" r="20" fill="#F3F4F2"/>
<circle cx="756" cy="618" r="20" fill="#F3F4F2"/>
<circle cx="802" cy="618" r="20" fill="#F3F4F2"/>
<circle cx="848" cy="618" r="20" fill="#F3F4F2"/>
<circle cx="894" cy="618" r="20" fill="#F3F4F2"/>
<circle cx="940" cy="618" r="20" fill="#F3F4F2"/>
<circle cx="20" cy="664" r="20" fill="#F3F4F2"/>
<circle cx="66" cy="664" r="20" fill="#F3F4F2"/>
<circle cx="112" cy="664" r="20" fill="#F3F4F2"/>
<circle cx="158" cy="664" r="20" fill="#F3F4F2"/>
<circle cx="204" cy="664" r="20" fill="#F3F4F2"/>
<circle cx="250" cy="664" r="20" fill="#F3F4F2"/>
<circle cx="296" cy="664" r="20" fill="#F3F4F2"/>
<circle cx="342" cy="664" r="20" fill="#F3F4F2"/>
<circle cx="388" cy="664" r="20" fill="#F3F4F2"/>
<circle cx="434" cy="664" r="20" fill="#F3F4F2"/>
<circle cx="480" cy="664" r="20" fill="#F3F4F2"/>
<circle cx="526" cy="664" r="20" fill="#F3F4F2"/>
<circle cx="572" cy="664" r="20" fill="#F3F4F2"/>
<circle cx="618" cy="664" r="20" fill="#F3F4F2"/>
<circle cx="664" cy="664" r="20" fill="#F3F4F2"/>
<circle cx="710" cy="664" r="20" fill="#F3F4F2"/>
<circle cx="756" cy="664" r="20" fill="#F3F4F2"/>
<circle cx="802" cy="664" r="20" fill="#F3F4F2"/>
<circle cx="848" cy="664" r="20" fill="#F3F4F2"/>
<circle cx="894" cy="664" r="20" fill="#F3F4F2"/>
<circle cx="940" cy="664" r="20" fill="#F3F4F2"/>
<circle cx="20" cy="710" r="20" fill="#F3F4F2"/>
<circle cx="66" cy="710" r="20" fill="#F3F4F2"/>
<circle cx="112" cy="710" r="20" fill="#F3F4F2"/>
<circle cx="158" cy="710" r="20" fill="#F3F4F2"/>
<circle cx="204" cy="710" r="20" fill="#F3F4F2"/>
<circle cx="250" cy="710" r="20" fill="#F3F4F2"/>
<circle cx="296" cy="710" r="20" fill="#F3F4F2"/>
<circle cx="342" cy="710" r="20" fill="#F3F4F2"/>
<circle cx="388" cy="710" r="20" fill="#F3F4F2"/>
<circle cx="434" cy="710" r="20" fill="#F3F4F2"/>
<circle cx="480" cy="710" r="20" fill="#F3F4F2"/>
<circle cx="526" cy="710" r="20" fill="#F3F4F2"/>
<circle cx="572" cy="710" r="20" fill="#F3F4F2"/>
<circle cx="618" cy="710" r="20" fill="#F3F4F2"/>
<circle cx="664" cy="710" r="20" fill="#F3F4F2"/>
<circle cx="710" cy="710" r="20" fill="#F3F4F2"/>
<circle cx="756" cy="710" r="20" fill="#F3F4F2"/>
<circle cx="802" cy="710" r="20" fill="#F3F4F2"/>
<circle cx="848" cy="710" r="20" fill="#F3F4F2"/>
<circle cx="894" cy="710" r="20" fill="#F3F4F2"/>
<circle cx="940" cy="710" r="20" fill="#F3F4F2"/>
<circle cx="20" cy="756" r="20" fill="#F3F4F2"/>
<circle cx="66" cy="756" r="20" fill="#F3F4F2"/>
<circle cx="112" cy="756" r="20" fill="#F3F4F2"/>
<circle cx="158" cy="756" r="20" fill="#F3F4F2"/>
<circle cx="204" cy="756" r="20" fill="#F3F4F2"/>
<circle cx="250" cy="756" r="20" fill="#F3F4F2"/>
<circle cx="296" cy="756" r="20" fill="#F3F4F2"/>
<circle cx="342" cy="756" r="20" fill="#F3F4F2"/>
<circle cx="388" cy="756" r="20" fill="#F3F4F2"/>
<circle cx="434" cy="756" r="20" fill="#F3F4F2"/>
<circle cx="480" cy="756" r="20" fill="#F3F4F2"/>
<circle cx="526" cy="756" r="20" fill="#F3F4F2"/>
<circle cx="572" cy="756" r="20" fill="#F3F4F2"/>
<circle cx="618" cy="756" r="20" fill="#F3F4F2"/>
<circle cx="664" cy="756" r="20" fill="#F3F4F2"/>
<circle cx="710" cy="756" r="20" fill="#F3F4F2"/>
<circle cx="756" cy="756" r="20" fill="#F3F4F2"/>
<circle cx="802" cy="756" r="20" fill="#F3F4F2"/>
<circle cx="848" cy="756" r="20" fill="#F3F4F2"/>
<circle cx="894" cy="756" r="20" fill="#F3F4F2"/>
<circle cx="940" cy="756" r="20" fill="#F3F4F2"/>
<circle cx="20" cy="802" r="20" fill="#F3F4F2"/>
<circle cx="66" cy="802" r="20" fill="#F3F4F2"/>
<circle cx="112" cy="802" r="20" fill="#F3F4F2"/>
<circle cx="158" cy="802" r="20" fill="#F3F4F2"/>
<circle cx="204" cy="802" r="20" fill="#F3F4F2"/>
<circle cx="250" cy="802" r="20" fill="#F3F4F2"/>
<circle cx="296" cy="802" r="20" fill="#F3F4F2"/>
<circle cx="342" cy="802" r="20" fill="#F3F4F2"/>
<circle cx="388" cy="802" r="20" fill="#F3F4F2"/>
<circle cx="434" cy="802" r="20" fill="#F3F4F2"/>
<circle cx="480" cy="802" r="20" fill="#F3F4F2"/>
<circle cx="526" cy="802" r="20" fill="#F3F4F2"/>
<circle cx="572" cy="802" r="20" fill="#F3F4F2"/>
<circle cx="618" cy="802" r="20" fill="#F3F4F2"/>
<circle cx="664" cy="802" r="20" fill="#F3F4F2"/>
<circle cx="710" cy="802" r="20" fill="#F3F4F2"/>
<circle cx="756" cy="802" r="20" fill="#F3F4F2"/>
<circle cx="802" cy="802" r="20" fill="#F3F4F2"/>
<circle cx="848" cy="802" r="20" fill="#F3F4F2"/>
<circle cx="894" cy="802" r="20" fill="#F3F4F2"/>
<circle cx="940" cy="802" r="20" fill="#F3F4F2"/>
<circle cx="20" cy="848" r="20" fill="#F3F4F2"/>
<circle cx="66" cy="848" r="20" fill="#F3F4F2"/>
<circle cx="112" cy="848" r="20" fill="#F3F4F2"/>
<circle cx="158" cy="848" r="20" fill="#F3F4F2"/>
<circle cx="204" cy="848" r="20" fill="#F3F4F2"/>
<circle cx="250" cy="848" r="20" fill="#F3F4F2"/>
<circle cx="296" cy="848" r="20" fill="#F3F4F2"/>
<circle cx="342" cy="848" r="20" fill="#F3F4F2"/>
<circle cx="388" cy="848" r="20" fill="#F3F4F2"/>
<circle cx="434" cy="848" r="20" fill="#F3F4F2"/>
<circle cx="480" cy="848" r="20" fill="#F3F4F2"/>
<circle cx="526" cy="848" r="20" fill="#F3F4F2"/>
<circle cx="572" cy="848" r="20" fill="#F3F4F2"/>
<circle cx="618" cy="848" r="20" fill="#F3F4F2"/>
<circle cx="664" cy="848" r="20" fill="#F3F4F2"/>
<circle cx="710" cy="848" r="20" fill="#F3F4F2"/>
<circle cx="756" cy="848" r="20" fill="#F3F4F2"/>
<circle cx="802" cy="848" r="20" fill="#F3F4F2"/>
<circle cx="848" cy="848" r="20" fill="#F3F4F2"/>
<circle cx="894" cy="848" r="20" fill="#F3F4F2"/>
<circle cx="940" cy="848" r="20" fill="#F3F4F2"/>
<circle cx="20" cy="894" r="20" fill="#F3F4F2"/>
<circle cx="66" cy="894" r="20" fill="#F3F4F2"/>
<circle cx="112" cy="894" r="20" fill="#F3F4F2"/>
<circle cx="158" cy="894" r="20" fill="#F3F4F2"/>
<circle cx="204" cy="894" r="20" fill="#F3F4F2"/>
<circle cx="250" cy="894" r="20" fill="#F3F4F2"/>
<circle cx="296" cy="894" r="20" fill="#F3F4F2"/>
<circle cx="342" cy="894" r="20" fill="#F3F4F2"/>
<circle cx="388" cy="894" r="20" fill="#F3F4F2"/>
<circle cx="434" cy="894" r="20" fill="#F3F4F2"/>
<circle cx="480" cy="894" r="20" fill="#F3F4F2"/>
<circle cx="526" cy="894" r="20" fill="#F3F4F2"/>
<circle cx="572" cy="894" r="20" fill="#F3F4F2"/>
<circle cx="618" cy="894" r="20" fill="#F3F4F2"/>
<circle cx="664" cy="894" r="20" fill="#F3F4F2"/>
<circle cx="710" cy="894" r="20" fill="#F3F4F2"/>
<circle cx="756" cy="894" r="20" fill="#F3F4F2"/>
<circle cx="802" cy="894" r="20" fill="#F3F4F2"/>
<circle cx="848" cy="894" r="20" fill="#F3F4F2"/>
<circle cx="894" cy="894" r="20" fill="#F3F4F2"/>
<circle cx="940" cy="894" r="20" fill="#F3F4F2"/>
<circle cx="20" cy="940" r="20" fill="#F3F4F2"/>
<circle cx="66" cy="940" r="20" fill="#F3F4F2"/>
<circle cx="112" cy="940" r="20" fill="#F3F4F2"/>
<circle cx="158" cy="940" r="20" fill="#F3F4F2"/>
<circle cx="204" cy="940" r="20" fill="#F3F4F2"/>
<circle cx="250" cy="940" r="20" fill="#F3F4F2"/>
<circle cx="296" cy="940" r="20" fill="#F3F4F2"/>
<circle cx="342" cy="940" r="20" fill="#F3F4F2"/>
<circle cx="388" cy="940" r="20" fill="#F3F4F2"/>
<circle cx="434" cy="940" r="20" fill="#F3F4F2"/>
<circle cx="480" cy="940" r="20" fill="#F3F4F2"/>
<circle cx="526" cy="940" r="20" fill="#F3F4F2"/>
<circle cx="572" cy="940" r="20" fill="#F3F4F2"/>
<circle cx="618" cy="940" r="20" fill="#F3F4F2"/>
<circle cx="664" cy="940" r="20" fill="#F3F4F2"/>
<circle cx="710" cy="940" r="20" fill="#F3F4F2"/>
<circle cx="756" cy="940" r="20" fill="#F3F4F2"/>
<circle cx="802" cy="940" r="20" fill="#F3F4F2"/>
<circle cx="848" cy="940" r="20" fill="#F3F4F2"/>
<circle cx="894" cy="940" r="20" fill="#F3F4F2"/>
<circle cx="940" cy="940" r="20" fill="#F3F4F2"/>
</svg>
