<svg width="460" height="428" viewBox="0 0 460 428" fill="none" xmlns="http://www.w3.org/2000/svg">
<path d="M255.965 332.074C202.676 283.321 194.837 205.15 238.454 157.475C282.072 109.799 360.63 110.673 413.919 159.426C467.207 208.179 475.047 286.35 431.429 334.025C387.811 381.701 309.253 380.827 255.965 332.074Z" fill="#FAB36C"/>
<path d="M190.589 209.792C137.301 161.039 129.461 82.8685 173.079 35.193C216.697 -12.4826 295.255 -11.6091 348.544 37.144C401.832 85.8971 409.672 164.068 366.054 211.744C322.436 259.419 243.878 258.546 190.589 209.792Z" fill="#FAB36C"/>
<path d="M109.894 390.653C56.6051 341.9 48.7655 263.729 92.3833 216.053C136.001 168.378 214.559 169.251 267.848 218.005C321.136 266.758 328.976 344.928 285.358 392.604C241.74 440.28 163.182 439.406 109.894 390.653Z" fill="#FAB36C"/>
<path d="M45.715 267.063C-7.57348 218.31 -15.4131 140.139 28.2048 92.4638C71.8226 44.7882 150.381 45.6617 203.669 94.4148C256.958 143.168 264.797 221.339 221.18 269.014C177.562 316.69 99.0036 315.816 45.715 267.063Z" fill="#FAB36C"/>
</svg>
