<svg width="646" height="652" viewBox="0 0 646 652" fill="none" xmlns="http://www.w3.org/2000/svg">
<path d="M355.347 376.566C227.699 458.088 96.862 481.337 63.1135 428.494C29.3651 375.651 105.485 266.726 233.133 185.203C360.781 103.681 491.618 80.4324 525.366 133.276C559.115 186.119 482.995 295.044 355.347 376.566Z" fill="#FFED89"/>
<path d="M417.247 473.49C289.6 555.012 158.763 578.261 125.014 525.418C91.2656 472.575 167.386 363.65 295.033 282.127C422.681 200.605 553.518 177.356 587.267 230.2C621.015 283.043 544.895 391.968 417.247 473.49Z" fill="#FFED89"/>
<path d="M269.638 242.364C154.344 315.997 36.7182 337.857 6.9144 291.19C-22.8894 244.523 46.4145 147.001 161.709 73.3681C277.004 -0.264942 394.629 -22.1253 424.433 24.5416C454.237 71.2084 384.933 168.731 269.638 242.364Z" fill="#FFED89"/>
<path d="M483.91 577.87C368.615 651.503 250.99 673.363 221.186 626.696C191.382 580.029 260.686 482.507 375.98 408.874C491.275 335.241 608.901 313.381 638.704 360.048C668.508 406.715 599.204 504.237 483.91 577.87Z" fill="#FFED89"/>
</svg>
